<?xml version="1.0" encoding="UTF-8"?>
<svg width="1017px" height="267px" viewBox="0 0 1017 267" version="1.1" xmlns="http://www.w3.org/2000/svg" xmlns:xlink="http://www.w3.org/1999/xlink">
    <!-- Generator: Sketch 51.3 (57544) - http://www.bohemiancoding.com/sketch -->
    <title>litemessage 2</title>
    <desc>Created with Sketch.</desc>
    <defs></defs>
    <g id="Page-1" stroke="none" stroke-width="1" fill="none" fill-rule="evenodd">
        <g id="logo-light-background">
            <g id="Group">
                <path d="M103.567724,194.148715 L104.559363,192.550539 L381.809255,2.27076419 L60.9665458,159.093506 L5.71472208,113.628467 C-0.25576512,108.715535 -1.11308326,99.8927809 3.79984843,93.9222937 C5.72887556,91.578025 8.36765844,89.9243298 11.3184466,89.2104738 L376.846912,0.781661812 C380.067711,0.00248462929 383.310332,1.98181028 384.089509,5.2026094 C384.486336,6.84292776 384.174006,8.57452471 383.229099,9.97283308 L220.539403,250.727053 C211.881129,263.539888 194.475355,266.907824 181.66252,258.249549 C180.933403,257.756848 180.227918,257.230049 179.548414,256.670906 L103.567724,194.148715 Z" id="Combined-Shape" fill="#7F93DA"></path>
                <polygon id="Path-3" fill="#5872B6" points="61 266 132 218.576616 103.813133 195"></polygon>
            </g>
            <path d="M345.728,180.416 C345.728,203.456 345.44,215.84 345.008,217.28 C343.568,218 342.272,218.288 340.832,218.288 C339.248,218.288 337.808,218 336.512,217.568 C335.216,214.688 334.64,199.424 334.64,172.064 C334.64,159.968 334.784,143.408 335.36,122.24 C336.224,121.808 337.808,121.52 340.112,121.52 C341.696,121.52 343.136,121.808 344.576,122.384 C345.296,127.568 345.728,146.864 345.728,180.416 Z M379.856,126.992 C379.568,129.008 378.56,132.176 376.544,136.208 C375.104,136.208 372.656,135.632 369.2,134.192 C365.744,132.896 363.584,131.744 363.008,130.88 C363.44,127.712 364.736,124.688 366.752,121.808 C368.048,121.808 370.352,122.528 373.52,123.68 C376.688,125.12 378.848,126.128 379.856,126.992 Z M376.544,188.192 C376.544,205.76 376.4,215.552 376.112,217.28 C374.96,217.856 373.376,218.144 371.36,218.144 C368.912,218.144 367.328,218 366.608,217.712 C365.456,215.696 365.024,204.608 365.024,184.592 C365.024,168.608 365.312,159.824 365.888,158.096 C366.896,157.808 368.48,157.52 370.784,157.52 C372.8,157.52 374.384,157.952 375.68,158.528 C376.256,160.544 376.544,170.336 376.544,188.192 Z M418.592,125.696 C418.16,136.784 417.728,147.584 417.296,158.24 C426.8,158.24 433.712,158.672 437.744,159.392 C437.744,160.688 437.888,161.984 438.032,163.28 C438.032,165.008 437.888,166.304 437.744,167.168 C436.88,167.456 434.288,167.744 430.112,168.032 C425.792,168.32 421.328,168.32 416.432,168.32 C415.568,188.336 414.992,201.008 414.992,206.48 C414.992,207.92 415.712,208.64 417.44,208.64 C417.872,208.64 419.456,208.496 422.048,208.208 C425.504,207.488 428.528,206.912 430.976,206.624 C431.552,207.632 431.84,209.072 431.984,210.944 C431.984,211.52 431.84,212.528 431.84,213.968 C426.512,216.848 420.464,218.144 413.84,218.144 C410.096,218.144 407.36,217.136 405.92,214.976 C404.768,213.392 404.192,210.944 404.192,207.632 C404.192,199.28 404.624,186.032 405.776,168.032 C400.736,168.032 396.128,167.6 391.808,166.88 C391.52,166.16 391.376,164.864 391.376,162.848 C391.376,161.264 391.52,159.968 391.808,158.816 C396.992,158.384 401.888,158.096 406.496,158.096 C407.36,146.432 408.224,135.488 409.232,125.12 C411.248,125.12 414.416,125.408 418.592,125.696 Z M506.864,186.032 C506.864,188.912 506.576,190.496 506.144,190.64 C500.096,192.8 483.536,194.384 456.752,195.536 C459.92,204.464 467.264,208.784 478.784,208.784 C483.968,208.784 489.296,207.632 494.624,205.184 C496.064,207.056 496.928,209.648 497.504,212.96 C491.312,216.56 484.976,218.288 478.352,218.288 C467.696,218.144 459.2,215.408 453.152,209.936 C447.824,204.752 445.232,197.984 445.232,189.92 C445.232,180.992 447.392,173.792 452,168.176 C458.336,160.832 466.4,157.088 476.048,157.088 C485.264,157.088 492.464,159.68 497.936,164.72 C503.696,170.48 506.72,177.536 506.864,186.032 Z M496.208,183.872 C496.064,180.416 494.912,176.96 492.896,173.792 C489.152,168.896 483.536,166.304 476.192,166.304 C470.72,166.304 465.824,168.464 461.648,172.784 C458.192,176.384 456.32,181.136 455.888,187.184 C460.64,186.896 474.032,185.744 496.208,183.872 Z M607.376,188.48 C607.232,195.392 606.656,200.864 605.792,205.184 C604.208,212.96 602.912,217.28 602.048,218 C597.728,218 595.136,217.424 593.984,216.128 C596,201.728 597.008,192.512 597.008,188.192 C597.008,184.592 596.288,181.424 595.136,178.832 C593.12,175.952 590.672,174.368 587.936,174.224 C583.328,174.368 576.272,179.408 566.768,189.344 C561.008,175.232 554.96,168.032 548.768,167.888 C544.448,167.888 540.128,170.336 535.808,175.232 C535.376,174.944 534.656,173.792 533.648,171.92 C532.64,170.192 532.208,168.752 532.208,167.744 C537.104,160.976 542.72,157.52 549.344,157.376 C557.264,157.52 564.032,163.424 569.504,175.088 C575.552,167.6 581.6,163.856 587.936,163.712 C594.416,163.712 599.6,166.592 603.488,172.352 C606.08,176.672 607.376,182 607.376,188.48 Z M530.48,216.992 C529.328,217.856 528.032,218.144 526.304,218.144 C524,218.144 522.416,218 521.84,218 C520.544,213.536 519.536,203.744 518.96,188.48 C518.528,178.112 518.384,169.472 518.384,162.416 C518.384,160.976 518.384,159.68 518.528,158.384 C519.968,157.808 521.408,157.52 522.56,157.52 C524.864,157.52 526.448,157.664 527.456,157.952 C528.32,163.136 529.04,172.064 529.76,184.736 C530.192,196.832 530.48,206.192 530.48,212.672 L530.48,216.992 Z M678.368,186.032 C678.368,188.912 678.08,190.496 677.648,190.64 C671.6,192.8 655.04,194.384 628.256,195.536 C631.424,204.464 638.768,208.784 650.288,208.784 C655.472,208.784 660.8,207.632 666.128,205.184 C667.568,207.056 668.432,209.648 669.008,212.96 C662.816,216.56 656.48,218.288 649.856,218.288 C639.2,218.144 630.704,215.408 624.656,209.936 C619.328,204.752 616.736,197.984 616.736,189.92 C616.736,180.992 618.896,173.792 623.504,168.176 C629.84,160.832 637.904,157.088 647.552,157.088 C656.768,157.088 663.968,159.68 669.44,164.72 C675.2,170.48 678.224,177.536 678.368,186.032 Z M667.712,183.872 C667.568,180.416 666.416,176.96 664.4,173.792 C660.656,168.896 655.04,166.304 647.696,166.304 C642.224,166.304 637.328,168.464 633.152,172.784 C629.696,176.384 627.824,181.136 627.392,187.184 C632.144,186.896 645.536,185.744 667.712,183.872 Z M738.704,166.448 C738.704,167.456 738.128,168.752 737.264,170.336 C736.544,171.776 735.68,172.784 734.528,173.504 C726.752,168.32 718.976,165.584 710.912,165.584 C702.128,165.584 697.808,167.888 697.808,172.352 C697.808,175.52 700.256,178.112 705.296,180.128 C713.648,183.872 719.12,186.32 721.424,187.472 C728.192,191.072 731.648,196.112 731.648,202.448 C730.784,213.104 723.872,218.288 710.768,218.576 C702.416,218.576 695.072,214.976 688.592,207.776 C688.88,206.912 689.6,205.616 690.752,204.032 L693.344,201.44 C699.536,206.768 705.44,209.36 710.912,209.36 C717.248,209.36 720.704,206.912 721.136,202.304 C721.136,198.992 718.688,195.968 713.792,193.376 C712.352,192.8 707.456,190.64 698.96,187.184 C690.896,183.728 687.008,178.832 687.008,172.208 C687.152,166.88 689.888,162.848 695.216,159.968 C698.816,157.952 704.144,156.8 711.2,156.8 C721.568,157.088 730.784,160.256 738.704,166.448 Z M797.6,166.448 C797.6,167.456 797.024,168.752 796.16,170.336 C795.44,171.776 794.576,172.784 793.424,173.504 C785.648,168.32 777.872,165.584 769.808,165.584 C761.024,165.584 756.704,167.888 756.704,172.352 C756.704,175.52 759.152,178.112 764.192,180.128 C772.544,183.872 778.016,186.32 780.32,187.472 C787.088,191.072 790.544,196.112 790.544,202.448 C789.68,213.104 782.768,218.288 769.664,218.576 C761.312,218.576 753.968,214.976 747.488,207.776 C747.776,206.912 748.496,205.616 749.648,204.032 L752.24,201.44 C758.432,206.768 764.336,209.36 769.808,209.36 C776.144,209.36 779.6,206.912 780.032,202.304 C780.032,198.992 777.584,195.968 772.688,193.376 C771.248,192.8 766.352,190.64 757.856,187.184 C749.792,183.728 745.904,178.832 745.904,172.208 C746.048,166.88 748.784,162.848 754.112,159.968 C757.712,157.952 763.04,156.8 770.096,156.8 C780.464,157.088 789.68,160.256 797.6,166.448 Z M867.152,212.96 C867.152,214.256 867.008,215.696 867.008,217.28 C863.408,217.424 860.528,217.424 858.512,217.424 C857.648,211.952 857.36,208.352 857.36,206.48 C849.872,214.256 842.096,218 834.032,218 C826.256,218 819.632,215.84 814.16,211.232 C807.824,205.328 804.8,197.696 804.8,188.48 C804.8,178.976 807.968,171.056 814.304,165.008 C819.776,160.112 826.4,157.664 834.032,157.52 C841.664,157.52 847.856,160.544 852.464,166.592 C851.6,169.472 850.16,171.488 848.144,172.928 C843.68,169.04 838.928,167.024 834.032,167.024 C829.568,167.168 825.392,169.04 821.36,172.64 C817.184,176.672 815.168,182 815.168,188.48 C815.168,194.24 816.896,199.136 820.64,203.168 C824.24,206.912 828.704,208.64 834.176,208.64 C841.52,208.64 849.008,204.464 856.496,196.112 C855.344,179.552 854.912,167.456 854.912,159.824 C855.92,159.392 857.504,159.104 859.52,158.816 C862.256,158.816 863.696,159.104 863.84,159.392 C864.848,161.984 865.712,170.048 866.288,183.584 C866.864,196.832 867.152,206.624 867.152,212.96 Z M940.736,228.224 C940.736,232.4 940.592,235.136 940.448,236.288 C940.016,239.168 937.136,241.616 931.808,243.632 C927.488,244.64 923.456,245.216 919.568,245.216 C916.4,245.216 914.096,244.928 912.512,244.352 C911.936,243.488 911.792,242.336 911.792,240.608 C911.792,238.88 911.792,237.584 912.08,236.72 C915.248,236.576 918.704,236.288 922.304,235.856 C927.488,234.56 930.224,232.976 930.224,231.248 C930.512,230.528 930.656,228.944 930.656,226.64 C930.656,224.624 930.512,216.416 930.368,201.728 C930.08,191.936 930.08,184.304 930.08,178.832 L930.08,166.736 C931.52,166.304 932.816,166.016 934.112,166.016 C936.128,166.016 937.856,166.304 939.008,166.592 C940.16,178.256 940.736,198.848 940.736,228.224 Z M925.904,165.872 C925.616,168.032 924.464,170.336 922.304,172.64 C917.12,169.328 911.936,167.6 906.752,167.6 C901.28,167.6 896.816,169.76 893.216,173.792 C889.616,178.112 887.888,183.008 887.888,188.768 C887.888,194.816 889.328,199.568 892.496,203.168 C895.808,206.768 900.272,208.496 905.744,208.496 C911.216,208.352 916.976,206.48 923.024,202.736 C923.6,203.744 924.896,206.192 926.624,210.08 C920.288,215.552 913.52,218.288 906.32,218.576 C897.104,218.576 890.048,215.984 884.864,210.512 C879.68,204.752 877.232,197.408 877.232,188.336 C877.232,179.84 879.824,172.496 885.152,166.16 C890.624,160.256 897.68,157.232 906.32,157.232 C913.808,157.232 920.432,160.112 925.904,165.872 Z M1012.448,186.032 C1012.448,188.912 1012.16,190.496 1011.728,190.64 C1005.68,192.8 989.12,194.384 962.336,195.536 C965.504,204.464 972.848,208.784 984.368,208.784 C989.552,208.784 994.88,207.632 1000.208,205.184 C1001.648,207.056 1002.512,209.648 1003.088,212.96 C996.896,216.56 990.56,218.288 983.936,218.288 C973.28,218.144 964.784,215.408 958.736,209.936 C953.408,204.752 950.816,197.984 950.816,189.92 C950.816,180.992 952.976,173.792 957.584,168.176 C963.92,160.832 971.984,157.088 981.632,157.088 C990.848,157.088 998.048,159.68 1003.52,164.72 C1009.28,170.48 1012.304,177.536 1012.448,186.032 Z M1001.792,183.872 C1001.648,180.416 1000.496,176.96 998.48,173.792 C994.736,168.896 989.12,166.304 981.776,166.304 C976.304,166.304 971.408,168.464 967.232,172.784 C963.776,176.384 961.904,181.136 961.472,187.184 C966.224,186.896 979.616,185.744 1001.792,183.872 Z" id="litemessage" fill="#000000"></path>
        </g>
    </g>
</svg>