<?xml version="1.0" encoding="UTF-8"?>
<svg width="880px" height="273px" viewBox="0 0 880 273" version="1.1" xmlns="http://www.w3.org/2000/svg" xmlns:xlink="http://www.w3.org/1999/xlink">
    <!-- Generator: Sketch 51.3 (57544) - http://www.bohemiancoding.com/sketch -->
    <title>Untitled</title>
    <desc>Created with Sketch.</desc>
    <defs></defs>
    <g id="Page-1" stroke="none" stroke-width="1" fill="none" fill-rule="evenodd">
        <g id="long-logo">
            <polygon id="logo-bg" fill="#527C9B" points="395.703077 0 415.195242 0 326.492165 273 307 273 395.703077 0"></polygon>
            <path d="M53.888,118.136 C49.087976,115.639988 44.384023,114.392 39.776,114.392 C37.375988,114.392 35.4320074,114.871995 33.944,115.832 C32.4559926,116.792005 31.712,118.087992 31.712,119.72 C31.712,120.584004 31.8319988,121.279997 32.072,121.808 C32.3120012,122.336003 32.8399959,122.839998 33.656,123.32 C34.4720041,123.800002 35.6719921,124.231998 37.256,124.616 C38.8400079,125.000002 40.927987,125.479997 43.52,126.056 C50.720036,127.496007 56.0959822,130.063982 59.648,133.76 C63.2000178,137.456018 64.976,142.183971 64.976,147.944 C64.976,152.264022 64.1120086,156.151983 62.384,159.608 C60.6559914,163.064017 58.2560154,165.967988 55.184,168.32 C52.1119846,170.672012 48.4160216,172.495994 44.096,173.792 C39.7759784,175.088006 35.0240259,175.736 29.84,175.736 C19.8559501,175.736 10.0160485,172.904028 0.32,167.24 L9.824,148.808 C17.1200365,153.800025 24.0319674,156.296 30.56,156.296 C32.960012,156.296 34.9279923,155.768005 36.464,154.712 C38.0000077,153.655995 38.768,152.312008 38.768,150.68 C38.768,149.719995 38.6480012,148.928003 38.408,148.304 C38.1679988,147.679997 37.6640038,147.104003 36.896,146.576 C36.1279962,146.047997 35.0000074,145.568002 33.512,145.136 C32.0239926,144.703998 30.080012,144.248002 27.68,143.768 C19.6159597,142.135992 13.9760161,139.712016 10.76,136.496 C7.54398392,133.279984 5.936,128.840028 5.936,123.176 C5.936,119.047979 6.70399232,115.328017 8.24,112.016 C9.77600768,108.703983 11.9839856,105.896012 14.864,103.592 C17.7440144,101.287988 21.2239796,99.5120062 25.304,98.264 C29.3840204,97.0159938 33.919975,96.392 38.912,96.392 C47.0720408,96.392 54.9919616,97.9759842 62.672,101.144 L53.888,118.136 Z M105.008,162.92 L69.296,99.128 L99.536,99.128 L119.264,137 L138.416,99.128 L168.368,99.128 L109.04,209.864 L79.808,209.864 L105.008,162.92 Z M177.296,99.128 L203.36,99.128 L203.36,108.488 C206.912018,104.167978 210.511982,101.264007 214.16,99.776 C217.808018,98.2879926 222.079976,97.544 226.976,97.544 C232.160026,97.544 236.599982,98.3839916 240.296,100.064 C243.992018,101.744008 247.135987,104.119985 249.728,107.192 C251.840011,109.688012 253.279996,112.471985 254.048,115.544 C254.816004,118.616015 255.2,122.11998 255.2,126.056 L255.2,173 L229.136,173 L229.136,135.704 C229.136,132.055982 228.872003,129.104011 228.344,126.848 C227.815997,124.591989 226.880007,122.792007 225.536,121.448 C224.383994,120.295994 223.088007,119.480002 221.648,119 C220.207993,118.519998 218.672008,118.28 217.04,118.28 C212.623978,118.28 209.240012,119.599987 206.888,122.24 C204.535988,124.880013 203.36,128.647976 203.36,133.544 L203.36,173 L177.296,173 L177.296,99.128 Z M328.64,123.032 C324.127977,119.959985 319.568023,118.424 314.96,118.424 C312.463988,118.424 310.136011,118.855996 307.976,119.72 C305.815989,120.584004 303.920008,121.807992 302.288,123.392 C300.655992,124.976008 299.384005,126.847989 298.472,129.008 C297.559995,131.168011 297.104,133.591987 297.104,136.28 C297.104,138.872013 297.559995,141.247989 298.472,143.408 C299.384005,145.568011 300.631992,147.439992 302.216,149.024 C303.800008,150.608008 305.695989,151.831996 307.904,152.696 C310.112011,153.560004 312.463988,153.992 314.96,153.992 C319.856024,153.992 324.415979,152.312017 328.64,148.952 L328.64,171.128 C322.207968,173.912014 316.112029,175.304 310.352,175.304 C304.975973,175.304 299.864024,174.392009 295.016,172.568 C290.167976,170.743991 285.896018,168.128017 282.2,164.72 C278.503982,161.311983 275.552011,157.232024 273.344,152.48 C271.135989,147.727976 270.032,142.424029 270.032,136.568 C270.032,130.711971 271.087989,125.360024 273.2,120.512 C275.312011,115.663976 278.191982,111.488018 281.84,107.984 C285.488018,104.479982 289.831975,101.74401 294.872,99.776 C299.912025,97.8079902 305.311971,96.824 311.072,96.824 C317.408032,96.824 323.263973,98.1679866 328.64,100.856 L328.64,123.032 Z M451.328,136.28 C451.328,133.975988 450.920004,131.79201 450.104,129.728 C449.287996,127.66399 448.112008,125.864008 446.576,124.328 C445.039992,122.791992 443.24001,121.568005 441.176,120.656 C439.11199,119.743995 436.880012,119.288 434.48,119.288 C432.175988,119.288 430.01601,119.719996 428,120.584 C425.98399,121.448004 424.232007,122.647992 422.744,124.184 C421.255993,125.720008 420.056005,127.51999 419.144,129.584 C418.231995,131.64801 417.776,133.831988 417.776,136.136 C417.776,138.440012 418.207996,140.59999 419.072,142.616 C419.936004,144.63201 421.135992,146.383993 422.672,147.872 C424.208008,149.360007 426.00799,150.559995 428.072,151.472 C430.13601,152.384005 432.319988,152.84 434.624,152.84 C436.928012,152.84 439.08799,152.408004 441.104,151.544 C443.12001,150.679996 444.871993,149.480008 446.36,147.944 C447.848007,146.407992 449.047995,144.63201 449.96,142.616 C450.872005,140.59999 451.328,138.488011 451.328,136.28 Z M418.496,209.864 L392.432,209.864 L392.432,99.128 L418.496,99.128 L418.496,107.336 C424.064028,100.327965 431.647952,96.824 441.248,96.824 C446.528026,96.824 451.447977,97.8559897 456.008,99.92 C460.568023,101.98401 464.527983,104.791982 467.888,108.344 C471.248017,111.896018 473.863991,116.071976 475.736,120.872 C477.608009,125.672024 478.544,130.807973 478.544,136.28 C478.544,141.752027 477.608009,146.839976 475.736,151.544 C473.863991,156.248024 471.272017,160.375982 467.96,163.928 C464.647983,167.480018 460.736023,170.26399 456.224,172.28 C451.711977,174.29601 446.816026,175.304 441.536,175.304 C432.319954,175.304 424.640031,172.136032 418.496,165.8 L418.496,209.864 Z M519.44,53.48 L519.44,173 L493.376,173 L493.376,53.48 L519.44,53.48 Z M662,162.92 L626.288,99.128 L656.528,99.128 L676.256,137 L695.408,99.128 L725.36,99.128 L666.032,209.864 L636.8,209.864 L662,162.92 Z M784.544,125.336 C783.679996,121.687982 781.904013,118.760011 779.216,116.552 C776.527987,114.343989 773.264019,113.24 769.424,113.24 C765.39198,113.24 762.104013,114.295989 759.56,116.408 C757.015987,118.520011 755.408003,121.495981 754.736,125.336 L784.544,125.336 Z M754.016,140.456 C754.016,151.688056 759.295947,157.304 769.856,157.304 C775.520028,157.304 779.791986,155.000023 782.672,150.392 L807.872,150.392 C802.783975,167.288084 790.064102,175.736 769.712,175.736 C763.471969,175.736 757.760026,174.800009 752.576,172.928 C747.391974,171.055991 742.952018,168.392017 739.256,164.936 C735.559982,161.479983 732.70401,157.352024 730.688,152.552 C728.67199,147.751976 727.664,142.37603 727.664,136.424 C727.664,130.279969 728.62399,124.736025 730.544,119.792 C732.46401,114.847975 735.199982,110.648017 738.752,107.192 C742.304018,103.735983 746.599975,101.072009 751.64,99.2 C756.680025,97.3279906 762.367968,96.392 768.704,96.392 C774.944031,96.392 780.559975,97.3279906 785.552,99.2 C790.544025,101.072009 794.767983,103.783982 798.224,107.336 C801.680017,110.888018 804.319991,115.231974 806.144,120.368 C807.968009,125.504026 808.88,131.287968 808.88,137.72 L808.88,140.456 L754.016,140.456 Z M823.712,99.128 L849.776,99.128 L849.776,111.224 C852.560014,106.807978 855.96798,103.424012 860,101.072 C864.03202,98.7199882 868.735973,97.544 874.112,97.544 L876.344,97.544 C877.160004,97.544 878.095995,97.639999 879.152,97.832 L879.152,122.744 C875.695983,121.015991 871.95202,120.152 867.92,120.152 C861.87197,120.152 857.336015,121.951982 854.312,125.552 C851.287985,129.152018 849.776,134.407965 849.776,141.32 L849.776,173 L823.712,173 L823.712,99.128 Z" id="logo-txt" fill="#FFEE00"></path>
            <path d="M563,113.001153 L563,159.234827 L598.414694,136.11799 L563,113.001153 Z M543,113.001153 C543,109.118705 544.130018,105.32019 546.252182,102.069063 C552.289808,92.8194986 564.682525,90.215708 573.932089,96.2533342 L609.346783,119.370172 C611.667334,120.884904 613.64778,122.86535 615.162512,125.185901 C621.200138,134.435465 618.596348,146.828182 609.346783,152.865809 L573.932089,175.982646 C570.680963,178.104809 566.882448,179.234827 563,179.234827 C551.954305,179.234827 543,170.280522 543,159.234827 L543,113.001153 Z" id="Path" fill="#527C9B" fill-rule="nonzero"></path>
        </g>
    </g>
</svg>