<?xml version="1.0" encoding="UTF-8"?>
<svg width="474px" height="273px" viewBox="0 0 474 273" version="1.1" xmlns="http://www.w3.org/2000/svg" xmlns:xlink="http://www.w3.org/1999/xlink">
    <!-- Generator: Sketch 51.3 (57544) - http://www.bohemiancoding.com/sketch -->
    <title>short_logo</title>
    <desc>Created with Sketch.</desc>
    <defs></defs>
    <g id="Page-1" stroke="none" stroke-width="1" fill="none" fill-rule="evenodd">
        <g id="short-logo">
            <polygon id="logo-bg" fill="#527C9B" points="395.703077 0 415.195242 0 326.492165 273 307 273 395.703077 0"></polygon>
            <path d="M53.888,118.136 C49.087976,115.639988 44.384023,114.392 39.776,114.392 C37.375988,114.392 35.4320074,114.871995 33.944,115.832 C32.4559926,116.792005 31.712,118.087992 31.712,119.72 C31.712,120.584004 31.8319988,121.279997 32.072,121.808 C32.3120012,122.336003 32.8399959,122.839998 33.656,123.32 C34.4720041,123.800002 35.6719921,124.231998 37.256,124.616 C38.8400079,125.000002 40.927987,125.479997 43.52,126.056 C50.720036,127.496007 56.0959822,130.063982 59.648,133.76 C63.2000178,137.456018 64.976,142.183971 64.976,147.944 C64.976,152.264022 64.1120086,156.151983 62.384,159.608 C60.6559914,163.064017 58.2560154,165.967988 55.184,168.32 C52.1119846,170.672012 48.4160216,172.495994 44.096,173.792 C39.7759784,175.088006 35.0240259,175.736 29.84,175.736 C19.8559501,175.736 10.0160485,172.904028 0.32,167.24 L9.824,148.808 C17.1200365,153.800025 24.0319674,156.296 30.56,156.296 C32.960012,156.296 34.9279923,155.768005 36.464,154.712 C38.0000077,153.655995 38.768,152.312008 38.768,150.68 C38.768,149.719995 38.6480012,148.928003 38.408,148.304 C38.1679988,147.679997 37.6640038,147.104003 36.896,146.576 C36.1279962,146.047997 35.0000074,145.568002 33.512,145.136 C32.0239926,144.703998 30.080012,144.248002 27.68,143.768 C19.6159597,142.135992 13.9760161,139.712016 10.76,136.496 C7.54398392,133.279984 5.936,128.840028 5.936,123.176 C5.936,119.047979 6.70399232,115.328017 8.24,112.016 C9.77600768,108.703983 11.9839856,105.896012 14.864,103.592 C17.7440144,101.287988 21.2239796,99.5120062 25.304,98.264 C29.3840204,97.0159938 33.919975,96.392 38.912,96.392 C47.0720408,96.392 54.9919616,97.9759842 62.672,101.144 L53.888,118.136 Z M105.008,162.92 L69.296,99.128 L99.536,99.128 L119.264,137 L138.416,99.128 L168.368,99.128 L109.04,209.864 L79.808,209.864 L105.008,162.92 Z M177.296,99.128 L203.36,99.128 L203.36,108.488 C206.912018,104.167978 210.511982,101.264007 214.16,99.776 C217.808018,98.2879926 222.079976,97.544 226.976,97.544 C232.160026,97.544 236.599982,98.3839916 240.296,100.064 C243.992018,101.744008 247.135987,104.119985 249.728,107.192 C251.840011,109.688012 253.279996,112.471985 254.048,115.544 C254.816004,118.616015 255.2,122.11998 255.2,126.056 L255.2,173 L229.136,173 L229.136,135.704 C229.136,132.055982 228.872003,129.104011 228.344,126.848 C227.815997,124.591989 226.880007,122.792007 225.536,121.448 C224.383994,120.295994 223.088007,119.480002 221.648,119 C220.207993,118.519998 218.672008,118.28 217.04,118.28 C212.623978,118.28 209.240012,119.599987 206.888,122.24 C204.535988,124.880013 203.36,128.647976 203.36,133.544 L203.36,173 L177.296,173 L177.296,99.128 Z M328.64,123.032 C324.127977,119.959985 319.568023,118.424 314.96,118.424 C312.463988,118.424 310.136011,118.855996 307.976,119.72 C305.815989,120.584004 303.920008,121.807992 302.288,123.392 C300.655992,124.976008 299.384005,126.847989 298.472,129.008 C297.559995,131.168011 297.104,133.591987 297.104,136.28 C297.104,138.872013 297.559995,141.247989 298.472,143.408 C299.384005,145.568011 300.631992,147.439992 302.216,149.024 C303.800008,150.608008 305.695989,151.831996 307.904,152.696 C310.112011,153.560004 312.463988,153.992 314.96,153.992 C319.856024,153.992 324.415979,152.312017 328.64,148.952 L328.64,171.128 C322.207968,173.912014 316.112029,175.304 310.352,175.304 C304.975973,175.304 299.864024,174.392009 295.016,172.568 C290.167976,170.743991 285.896018,168.128017 282.2,164.72 C278.503982,161.311983 275.552011,157.232024 273.344,152.48 C271.135989,147.727976 270.032,142.424029 270.032,136.568 C270.032,130.711971 271.087989,125.360024 273.2,120.512 C275.312011,115.663976 278.191982,111.488018 281.84,107.984 C285.488018,104.479982 289.831975,101.74401 294.872,99.776 C299.912025,97.8079902 305.311971,96.824 311.072,96.824 C317.408032,96.824 323.263973,98.1679866 328.64,100.856 L328.64,123.032 Z" id="logo-txt" fill="#FFEE00"></path>
            <path d="M418,113.001153 L418,159.234827 L453.414694,136.11799 L418,113.001153 Z M398,113.001153 C398,109.118705 399.130018,105.32019 401.252182,102.069063 C407.289808,92.8194986 419.682525,90.215708 428.932089,96.2533342 L464.346783,119.370172 C466.667334,120.884904 468.64778,122.86535 470.162512,125.185901 C476.200138,134.435465 473.596348,146.828182 464.346783,152.865809 L428.932089,175.982646 C425.680963,178.104809 421.882448,179.234827 418,179.234827 C406.954305,179.234827 398,170.280522 398,159.234827 L398,113.001153 Z" id="Path" fill="#527C9B" fill-rule="nonzero"></path>
        </g>
    </g>
</svg>